# xmcd
#
# Track frame offsets:
#	150
#	16592
#	30854
#	45271
#
# Disc length: 822 seconds
#
# Revision: 0
# Processed by: cddbd v1.5.2PL0 Copyright (c) Steve Scherf et al.
# Submitted via: EasyCDDAExtractor 2011.3.0.0
#
DISCID=16033404
DTITLE=Mary-Lynn Neil - FLY - EP
DYEAR=2011
DGENRE=Country
TTITLE0=He's A Player
TTITLE1=I'm Gonna Fly
TTITLE2=A Daughter's Prayer
TTITLE3=I Want A Boy For Christmas
EXTD=
EXTT0=
EXTT1=
EXTT2=
EXTT3=
PLAYORDER=
